<?xml version="1.0" ?><!DOCTYPE svg  PUBLIC '-//W3C//DTD SVG 1.1//EN'  'http://www.w3.org/Graphics/SVG/1.1/DTD/svg11.dtd'><svg enable-background="new 0 0 128 128" id="Слой_1" version="1.1" viewBox="0 0 128 128" xml:space="preserve" xmlns="http://www.w3.org/2000/svg" xmlns:xlink="http://www.w3.org/1999/xlink"><g><circle cx="64" cy="64" fill="#E5E4DE" r="62"/><path d="M50.172,57.035l-4.432-1.617c-0.612-0.223-0.927-0.9-0.704-1.512l11.319-31.024   c0.223-0.612,0.9-0.927,1.512-0.704l4.432,1.617c0.612,0.223,0.927,0.9,0.704,1.512L51.685,56.331   C51.461,56.943,50.784,57.258,50.172,57.035z" fill="#42464A"/><path d="M82.263,55.42l-4.431,1.621c-0.612,0.224-1.289-0.091-1.513-0.702L64.969,25.32   c-0.224-0.612,0.091-1.289,0.702-1.513l4.431-1.621c0.612-0.224,1.289,0.091,1.513,0.702l11.35,31.019   C83.19,54.518,82.875,55.196,82.263,55.42z" fill="#42464A"/><path d="M76.319,56.339c0.224,0.612,0.901,0.926,1.513,0.702l4.431-1.621   c0.612-0.224,0.926-0.901,0.702-1.513l-2.157-5.894h-7.537L76.319,56.339z" fill="#020507" opacity="0.2"/><path d="M45.037,53.906c-0.223,0.612,0.092,1.289,0.704,1.512l4.432,1.617   c0.612,0.223,1.289-0.092,1.512-0.704l3.035-8.318h-7.533L45.037,53.906z" fill="#020507" opacity="0.2"/><path d="M102,50.013H26c-1.105,0-2,0.895-2,2v6c0,1.105,0.895,2,2,2h3.015l4.438,35.501   c0.313,2.502,2.44,4.38,4.961,4.38h51.172c2.522,0,4.649-1.878,4.961-4.38l4.438-35.501H102c1.105,0,2-0.895,2-2v-6   C104,50.908,103.105,50.013,102,50.013z M51,89.429c0,1.105-0.895,2-2,2s-2-0.895-2-2v-21c0-1.105,0.895-2,2-2s2,0.895,2,2V89.429z    M66,89.429c0,1.105-0.895,2-2,2s-2-0.895-2-2v-21c0-1.105,0.895-2,2-2s2,0.895,2,2V89.429z M81,89.429c0,1.105-0.895,2-2,2   s-2-0.895-2-2v-21c0-1.105,0.895-2,2-2s2,0.895,2,2V89.429z" fill="#41B19C"/><path d="M32.001,60.075l-2.986-0.063l4.438,35.501c0.267,2.136,1.861,3.806,3.889,4.252   c-0.461-0.652-0.784-1.412-0.889-2.252L32.001,60.075z" fill="#F5F8F7" opacity="0.15"/><path d="M26,50.013c-1.105,0-2,0.895-2,2v6c0,1.105,0.895,2,2,2h1v-8c0-1.105,0.895-2,2-2" fill="#F5F8F7" opacity="0.15"/><path d="M102,50.013h-1v8c0,1.105-0.895,2-2,2h3c1.105,0,2-0.895,2-2v-6   C104,50.908,103.105,50.013,102,50.013z" fill="#020507" opacity="0.1"/><path d="M99,59.893H29l0,0l66.467,4.03l-3.92,31.59c-0.313,2.502-2.44,4.38-4.961,4.38h3   c2.522,0,4.649-1.878,4.961-4.38l4.438-35.501l0,0L99,59.893z" fill="#020507" opacity="0.1"/><circle cx="47.952" cy="55.622" fill="#42464A" r="2.5"/><path d="M82.46,55c0.449,1.861-1.186,3.496-3.047,3.047c-0.875-0.211-1.592-0.928-1.803-1.803   c-0.449-1.861,1.186-3.496,3.047-3.047C81.532,53.407,82.249,54.125,82.46,55z" fill="#42464A"/><path d="M88.833,99.893c-9.564,0-17.346-7.851-17.346-17.5s7.781-17.5,17.346-17.5s17.346,7.851,17.346,17.5   S98.397,99.893,88.833,99.893z" fill="#7B4C4C"/><rect fill="#FEFFFF" height="14.656" transform="matrix(-0.7071 -0.7071 0.7071 -0.7071 94.1723 203.2369)" width="6" x="86.178" y="74.787"/><path d="M97.663,72.79c-1.201-0.814-2.835-0.567-3.861,0.458l-0.856,0.856l4.243,4.243l0.935-0.935   C99.432,76.103,99.278,73.885,97.663,72.79z" fill="#FEFFFF"/><path d="M81.152,85.897l-1.29,5.159c-0.056,0.226,0.148,0.43,0.374,0.374l5.159-1.29l0.015-0.015l-4.243-4.243   L81.152,85.897z" fill="#FEFFFF"/></g></svg>